Ch0@2v15%10\e15000 t170
Ch0 O4C4 O4C4
Ch0 O3G4 O3G4
Ch0 O4E6 O4D12 O4E6 O4D2
Ch0 R12 O4E4 O4G4
Ch0 O4D6 O4C12 O4D6 O4E1
Ch0 R12 O4F4 O4F4
Ch0 O4E4 O4E4
Ch0 O4D6 O4D12 O4D6 O4E2
Ch0 R12 O4F4 O4F4
Ch0 O4E4 O4E4
Ch0 O4G6 O4G12 O4G6 O4D2
Ch0 R12 O4C4 O4C4
Ch0 O3G4 O3G4
Ch0 O4E6 O4D12 O4E6 O4D2
Ch0 R12 O4E4 O4G4
Ch0 O4D6 O4C12 O4D6 O4E1
Ch0 R12 O4F4 O4F4
Ch0 O4E4 O4E4
Ch0 O4G6 O4G12 O4G6 O4E3
Ch0 O4D4 O4C4
Ch0 O3G4 O4C6 O4D4
Ch0 O4C1
Ch0 R12# 768
Ch1@2v12%10\e10000 t170
Ch1 O3C6 R12 O3C6 R12
Ch1 O3C4 R6 O3C12
Ch1 R6 O3C12 R6 O3C12
Ch1 O3C6 O2D12 O3C6 O2D+12
Ch1 O2E6 O2B12 O2E6 R12
Ch1 O2E4 R6 O2A4
Ch1 O2A12 R6 O2A12 O2A6
Ch1 R12 O2A6 R12 O2F6
Ch1 O3C12 O2F6 R12 O2F4
Ch1 R6 O2D4 O2D12
Ch1 R6 O2D12 O2D6 R12
Ch1 O2D6 R12 O2F6 R12
Ch1 O2F6 R12 O2F4
Ch1 R6 O2G4 O2G12
Ch1 R6 O2D12 O2G6 O2D12
Ch1 O2G6 R12 O3C6 R12
Ch1 O3C6 R12 O3C4
Ch1 R6 O3C12 R6 O3C12
Ch1 R6 O3C12 O3C6 O2D12
Ch1 O3C6 O2D+12 O2E6 O2B12
Ch1 O2E6 R12 O2E4
Ch1 R6 O2A4 O2A12
Ch1 R6 O2E12 O2A6 O2E12
Ch1 O2A6 R12 O2F6 R12
Ch1 O2F6 R12 O2F4
Ch1 R6 O2E4 O2E12
Ch1 R6 O2E12 O2E6 R12
Ch1 O2E6 R12 O3C6 R12
Ch1 O3C6 R12 O2G4
Ch1 R6 O3C4 O3C12
Ch1 R6 O3C12 O3C6 R12
Ch1 O3C6 R12# 768
Ch2@2v6%20\e5000 t170
Ch2 R4 O3E6 R12
Ch2 R4 O3E6 R12
Ch2 R4 O3E6 R12
Ch2 R4 O3E6 R12
Ch2 R4 O3E6 R12
Ch2 R4 O3E6 R12
Ch2 R4 O3E6 R12
Ch2 R4 O3E6 R12
Ch2 R4 O3F6 R12
Ch2 R4 O3F6 R12
Ch2 R4 O3F6 R12
Ch2 R4 O3F6 R12
Ch2 R4 O3F6 R12
Ch2 R4 O3F6 R12
Ch2 R4 O3G6 R12
Ch2 R4 O3G6 R12
Ch2 R4 O3E6 R12
Ch2 R4 O3E6 R12
Ch2 R4 O3E6 R12
Ch2 R4 O3E6 R12
Ch2 R4 O3E6 R12
Ch2 R4 O3E6 R12
Ch2 R4 O3E6 R12
Ch2 R4 O3E6 R12
Ch2 R4 O3F6 R12
Ch2 R4 O3F6 R12
Ch2 R4 O3E6 R12
Ch2 R4 O3E6 R12
Ch2 R4 O3E6 R12
Ch2 R4 O3G6 R12
Ch2 R4 O3E6 R12
Ch2 R4 O3E6 R12
# 768
Ch3@2v6%20\e5000 t170
Ch3 R4 O3C6 R12
Ch3 R4 O3C6 R12
Ch3 R4 O3C6 R12
Ch3 R4 O3C6 R12
Ch3 R4 O2B6 R12
Ch3 R4 O2B6 R12
Ch3 R4 O3C6 R12
Ch3 R4 O3C6 R12
Ch3 R4 O3C6 R12
Ch3 R4 O3C6 R12
Ch3 R4 O3D6 R12
Ch3 R4 O3D6 R12
Ch3 R4 O3C6 R12
Ch3 R4 O3C6 R12
Ch3 R4 O3D6 R12
Ch3 R4 O3D6 R12
Ch3 R4 O3C6 R12
Ch3 R4 O3C6 R12
Ch3 R4 O3C6 R12
Ch3 R4 O3C6 R12
Ch3 R4 O2B6 R12
Ch3 R4 O2B6 R12
Ch3 R4 O3C6 R12
Ch3 R4 O3C6 R12
Ch3 R4 O3C6 R12
Ch3 R4 O3C6 R12
Ch3 R4 O2B6 R12
Ch3 R4 O2B6 R12
Ch3 R4 O3C6 R12
Ch3 R4 O3D6 R12
Ch3 R4 O3C6 R12
Ch3 R4 O3C6 R12
# 768
Ch4@2v6%20\e5000 t170
Ch4 R4 O2G6 R12
Ch4 R4 O2G6 R12
Ch4 R4 O2G6 R12
Ch4 R4 O2G6 R12
Ch4 R4 O2G6 R12
Ch4 R4 O2G6 R12
Ch4 R4 O2A6 R12
Ch4 R4 O2A6 R12
Ch4 R4 O2A6 R12
Ch4 R4 O2A6 R12
Ch4 R4 O2A6 R12
Ch4 R4 O2A6 R12
Ch4 R4 O2A6 R12
Ch4 R4 O2A6 R12
Ch4 R4 O2B6 R12
Ch4 R4 O2B6 R12
Ch4 R4 O2G6 R12
Ch4 R4 O2G6 R12
Ch4 R4 O2G6 R12
Ch4 R4 O2G6 R12
Ch4 R4 O2G6 R12
Ch4 R4 O2G6 R12
Ch4 R4 O2A6 R12
Ch4 R4 O2A6 R12
Ch4 R4 O2A6 R12
Ch4 R4 O2A6 R12
Ch4 R4 O2G6 R12
Ch4 R4 O2G6 R12
Ch4 R4 O2G6 R12
Ch4 R4 O2B6 R12
Ch4 R4 O2G6 R12
Ch4 R4 O2G6 R12
# 768
